<svg xmlns="http://www.w3.org/2000/svg" viewBox="0 0 1200 630" width="1200" height="630" role="img" aria-label="AChat — Anonymous Chat AI documentation">
  <defs>
    <linearGradient id="sc-bg" x1="0" y1="0" x2="1" y2="1">
      <stop offset="0" stop-color="#7c3aed"/>
      <stop offset="0.55" stop-color="#5b21b6"/>
      <stop offset="1" stop-color="#2e1065"/>
    </linearGradient>
    <radialGradient id="sc-glow" cx="0.78" cy="0.16" r="0.7">
      <stop offset="0" stop-color="#a855f7" stop-opacity="0.5"/>
      <stop offset="1" stop-color="#a855f7" stop-opacity="0"/>
    </radialGradient>
    <linearGradient id="sc-key" x1="0" y1="0" x2="0.6" y2="1">
      <stop offset="0" stop-color="#c4b5fd"/>
      <stop offset="0.5" stop-color="#a855f7"/>
      <stop offset="1" stop-color="#7c3aed"/>
    </linearGradient>
  </defs>
  <rect width="1200" height="630" fill="url(#sc-bg)"/>
  <rect width="1200" height="630" fill="url(#sc-glow)"/>

  <!-- brand mark, left -->
  <g transform="translate(96 175)">
    <rect width="280" height="280" rx="62" fill="#ffffff" fill-opacity="0.07"/>
    <g transform="translate(28 28) scale(0.222)">
      <path d="M620.64 243.12 A290 290 0 1 1 403.36 243.12" fill="none" stroke="#ffffff" stroke-width="26" stroke-linecap="round"/>
      <circle cx="587.06" cy="231.88" r="14" fill="#ffffff"/>
      <circle cx="557.36" cy="225.57" r="9" fill="#ffffff" fill-opacity="0.6"/>
      <circle cx="532.23" cy="222.71" r="5" fill="#ffffff" fill-opacity="0.35"/>
      <rect x="339" y="366" width="346" height="250" rx="66" fill="#ffffff"/>
      <path d="M410 612 L372 672 L474 612 Z" fill="#ffffff"/>
      <circle cx="512" cy="466" r="46" fill="url(#sc-key)"/>
      <path d="M491 480 H533 L548 556 H476 Z" fill="url(#sc-key)"/>
    </g>
  </g>

  <!-- text, right -->
  <g transform="translate(440 0)" font-family="Inter, system-ui, -apple-system, 'Segoe UI', Roboto, sans-serif">
    <text x="0" y="232" fill="#ffffff" font-size="92" font-weight="800" letter-spacing="-2">AChat</text>
    <text x="0" y="300" fill="#e9d5ff" font-size="38" font-weight="600">Anonymous Chat AI — Documentation</text>
    <text x="0" y="372" fill="#ffffff" fill-opacity="0.92" font-size="30" font-weight="500">No sign-up · optional end-to-end encryption</text>
    <text x="0" y="416" fill="#ffffff" fill-opacity="0.92" font-size="30" font-weight="500">File sharing · 10-day auto-delete</text>
    <text x="0" y="486" fill="#c4b5fd" font-size="26" font-weight="500">achat.aoneahsan.com</text>
  </g>
</svg>
